<?xml version="1.0" encoding="UTF-8"?>
<svg xmlns="http://www.w3.org/2000/svg" xmlns:xlink="http://www.w3.org/1999/xlink" width="2000" height="2000" viewBox="0 0 2000 2000">
<path fill-rule="evenodd" fill="rgb(95.701599%, 96.875%, 98.046875%)" fill-opacity="1" d="M 0 0.078125 L 1999.921875 0.078125 L 1999.921875 2000 L 0 2000 L 0 0.078125 "/>
<path fill-rule="evenodd" fill="rgb(95.701599%, 96.875%, 98.046875%)" fill-opacity="1" d="M 1908.238281 1915.15625 L 1889.179688 1915.15625 C 1888.300781 1915.15625 1887.589844 1915.871094 1887.589844 1916.746094 L 1887.589844 1935.800781 C 1887.589844 1936.679688 1888.300781 1937.394531 1889.179688 1937.394531 L 1908.238281 1937.394531 C 1909.109375 1937.394531 1909.828125 1936.679688 1909.828125 1935.800781 L 1909.828125 1916.746094 C 1909.828125 1915.871094 1909.109375 1915.15625 1908.238281 1915.15625 "/>
<path fill-rule="evenodd" fill="rgb(95.701599%, 96.875%, 98.046875%)" fill-opacity="1" d="M 1865.28125 1916.171875 L 1847.089844 1916.171875 C 1846.261719 1916.171875 1845.578125 1916.855469 1845.578125 1917.691406 L 1845.578125 1935.875 C 1845.578125 1936.710938 1846.261719 1937.394531 1847.089844 1937.394531 L 1865.28125 1937.394531 C 1866.109375 1937.394531 1866.800781 1936.710938 1866.800781 1935.875 L 1866.800781 1917.691406 C 1866.800781 1916.855469 1866.109375 1916.171875 1865.28125 1916.171875 "/>
<path fill-rule="evenodd" fill="rgb(95.701599%, 96.875%, 98.046875%)" fill-opacity="1" d="M 1822.320312 1917.1875 L 1805.011719 1917.1875 C 1804.210938 1917.1875 1803.558594 1917.839844 1803.558594 1918.636719 L 1803.558594 1935.949219 C 1803.558594 1936.742188 1804.210938 1937.394531 1805.011719 1937.394531 L 1822.320312 1937.394531 C 1823.121094 1937.394531 1823.769531 1936.742188 1823.769531 1935.949219 L 1823.769531 1918.636719 C 1823.769531 1917.839844 1823.121094 1917.1875 1822.320312 1917.1875 "/>
<path fill-rule="evenodd" fill="rgb(95.701599%, 96.875%, 98.046875%)" fill-opacity="1" d="M 1779.371094 1918.207031 L 1762.929688 1918.207031 C 1762.171875 1918.207031 1761.550781 1918.824219 1761.550781 1919.582031 L 1761.550781 1936.019531 C 1761.550781 1936.777344 1762.171875 1937.394531 1762.929688 1937.394531 L 1779.371094 1937.394531 C 1780.121094 1937.394531 1780.738281 1936.777344 1780.738281 1936.019531 L 1780.738281 1919.582031 C 1780.738281 1918.824219 1780.121094 1918.207031 1779.371094 1918.207031 "/>
<path fill-rule="evenodd" fill="rgb(95.701599%, 96.875%, 98.046875%)" fill-opacity="1" d="M 1736.410156 1919.222656 L 1720.839844 1919.222656 C 1720.128906 1919.222656 1719.539062 1919.808594 1719.539062 1920.523438 L 1719.539062 1936.09375 C 1719.539062 1936.808594 1720.128906 1937.394531 1720.839844 1937.394531 L 1736.410156 1937.394531 C 1737.128906 1937.394531 1737.710938 1936.808594 1737.710938 1936.09375 L 1737.710938 1920.523438 C 1737.710938 1919.808594 1737.128906 1919.222656 1736.410156 1919.222656 "/>
<path fill-rule="evenodd" fill="rgb(95.701599%, 96.875%, 98.046875%)" fill-opacity="1" d="M 1693.460938 1920.238281 L 1678.761719 1920.238281 C 1678.078125 1920.238281 1677.53125 1920.792969 1677.53125 1921.46875 L 1677.53125 1936.167969 C 1677.53125 1936.84375 1678.078125 1937.394531 1678.761719 1937.394531 L 1693.460938 1937.394531 C 1694.128906 1937.394531 1694.679688 1936.84375 1694.679688 1936.167969 L 1694.679688 1921.46875 C 1694.679688 1920.792969 1694.128906 1920.238281 1693.460938 1920.238281 "/>
<path fill-rule="evenodd" fill="rgb(95.701599%, 96.875%, 98.046875%)" fill-opacity="1" d="M 1650.5 1921.257812 L 1636.671875 1921.257812 C 1636.039062 1921.257812 1635.519531 1921.777344 1635.519531 1922.414062 L 1635.519531 1936.238281 C 1635.519531 1936.875 1636.039062 1937.394531 1636.671875 1937.394531 L 1650.5 1937.394531 C 1651.140625 1937.394531 1651.648438 1936.875 1651.648438 1936.238281 L 1651.648438 1922.414062 C 1651.648438 1921.777344 1651.140625 1921.257812 1650.5 1921.257812 "/>
<path fill-rule="evenodd" fill="rgb(95.701599%, 96.875%, 98.046875%)" fill-opacity="1" d="M 1607.539062 1922.273438 L 1594.589844 1922.273438 C 1593.988281 1922.273438 1593.511719 1922.761719 1593.511719 1923.355469 L 1593.511719 1936.3125 C 1593.511719 1936.90625 1593.988281 1937.394531 1594.589844 1937.394531 L 1607.539062 1937.394531 C 1608.140625 1937.394531 1608.628906 1936.90625 1608.628906 1936.3125 L 1608.628906 1923.355469 C 1608.628906 1922.761719 1608.140625 1922.273438 1607.539062 1922.273438 "/>
<path fill-rule="evenodd" fill="rgb(95.701599%, 96.875%, 98.046875%)" fill-opacity="1" d="M 1564.589844 1923.292969 L 1552.5 1923.292969 C 1551.949219 1923.292969 1551.488281 1923.746094 1551.488281 1924.300781 L 1551.488281 1936.386719 C 1551.488281 1936.941406 1551.949219 1937.394531 1552.5 1937.394531 L 1564.589844 1937.394531 C 1565.140625 1937.394531 1565.601562 1936.941406 1565.601562 1936.386719 L 1565.601562 1924.300781 C 1565.601562 1923.746094 1565.140625 1923.292969 1564.589844 1923.292969 "/>
<path fill-rule="evenodd" fill="rgb(37.646484%, 37.646484%, 38.426208%)" fill-opacity="1" d="M 999.960938 1240.757812 C 710.554688 1240.757812 475.945312 1006.148438 475.945312 716.738281 C 475.945312 427.339844 710.554688 192.730469 999.960938 192.730469 L 999.960938 1240.757812 "/>
<path fill-rule="evenodd" fill="rgb(94.921875%, 87.5%, 82.03125%)" fill-opacity="1" d="M 999.960938 705.488281 C 961.398438 705.488281 922.839844 720.121094 893.585938 749.371094 L 675.578125 967.378906 C 621.953125 898.078125 590.023438 811.140625 590.023438 716.738281 C 590.023438 612.339844 629.070312 517.078125 693.328125 444.710938 L 999.960938 444.710938 L 999.960938 705.488281 "/>
<path fill-rule="evenodd" fill="rgb(82.421875%, 82.421875%, 82.03125%)" fill-opacity="1" d="M 999.960938 1126.675781 C 867.960938 1126.675781 750.554688 1064.273438 675.578125 967.378906 L 893.585938 749.371094 C 922.839844 720.121094 961.398438 705.488281 999.960938 705.488281 L 999.960938 1126.675781 "/>
<path fill-rule="evenodd" fill="rgb(37.646484%, 37.646484%, 38.426208%)" fill-opacity="1" d="M 999.960938 1609.34375 L 424.636719 1609.34375 C 511.507812 1478.882812 641.554688 1379.644531 794.371094 1332.054688 L 999.960938 1447.386719 L 999.960938 1609.34375 "/>
<path fill-rule="evenodd" fill="rgb(82.421875%, 82.421875%, 82.03125%)" fill-opacity="1" d="M 999.960938 1447.386719 L 794.363281 1332.050781 L 794.363281 1198.867188 C 857.492188 1225.820312 926.980469 1240.757812 999.960938 1240.757812 L 999.960938 1447.386719 "/>
<path fill-rule="evenodd" fill="rgb(37.646484%, 37.646484%, 38.426208%)" fill-opacity="1" d="M 778.066406 595.769531 C 802.648438 595.769531 822.570312 615.691406 822.570312 640.269531 C 822.570312 664.851562 802.648438 684.769531 778.066406 684.769531 C 753.488281 684.769531 733.566406 664.851562 733.566406 640.269531 C 733.566406 615.691406 753.488281 595.769531 778.066406 595.769531 "/>
<path fill-rule="evenodd" fill="rgb(26.268005%, 26.268005%, 26.268005%)" fill-opacity="1" d="M 999.960938 192.730469 C 1289.371094 192.730469 1523.980469 427.339844 1523.980469 716.738281 C 1523.980469 1006.148438 1289.371094 1240.757812 999.960938 1240.757812 L 999.960938 192.730469 "/>
<path fill-rule="evenodd" fill="rgb(94.139099%, 79.296875%, 68.943787%)" fill-opacity="1" d="M 1306.589844 444.710938 C 1370.851562 517.078125 1409.890625 612.339844 1409.890625 716.738281 C 1409.890625 811.140625 1377.960938 898.078125 1324.339844 967.378906 L 1106.328125 749.371094 C 1077.078125 720.121094 1038.519531 705.488281 999.960938 705.488281 L 999.960938 444.710938 L 1306.589844 444.710938 "/>
<path fill-rule="evenodd" fill="rgb(70.117188%, 70.506287%, 70.506287%)" fill-opacity="1" d="M 1324.339844 967.378906 C 1249.359375 1064.273438 1131.960938 1126.675781 999.960938 1126.675781 L 999.960938 705.488281 C 1038.519531 705.488281 1077.078125 720.121094 1106.328125 749.371094 L 1324.339844 967.378906 "/>
<path fill-rule="evenodd" fill="rgb(26.268005%, 26.268005%, 26.268005%)" fill-opacity="1" d="M 1205.550781 1332.054688 C 1358.371094 1379.644531 1488.410156 1478.882812 1575.28125 1609.34375 L 999.960938 1609.34375 L 999.960938 1447.386719 L 1205.550781 1332.054688 "/>
<path fill-rule="evenodd" fill="rgb(70.117188%, 70.506287%, 70.506287%)" fill-opacity="1" d="M 1205.550781 1198.867188 L 1205.550781 1332.050781 L 999.960938 1447.386719 L 999.960938 1240.757812 C 1072.941406 1240.757812 1142.429688 1225.820312 1205.550781 1198.867188 "/>
<path fill-rule="evenodd" fill="rgb(26.268005%, 26.268005%, 26.268005%)" fill-opacity="1" d="M 1221.851562 595.769531 C 1246.429688 595.769531 1266.359375 615.691406 1266.359375 640.269531 C 1266.359375 664.851562 1246.429688 684.769531 1221.851562 684.769531 C 1197.269531 684.769531 1177.351562 664.851562 1177.351562 640.269531 C 1177.351562 615.691406 1197.269531 595.769531 1221.851562 595.769531 "/>
</svg>
